<svg xmlns="http://www.w3.org/2000/svg" viewBox="0 0 32 32" fill="none">
  <defs>
    <linearGradient id="bg" x1="0" y1="0" x2="32" y2="32" gradientUnits="userSpaceOnUse">
      <stop offset="0%" stop-color="#8B5CF6"/>
      <stop offset="50%" stop-color="#EC4899"/>
      <stop offset="100%" stop-color="#06B6D4"/>
    </linearGradient>
  </defs>
  <rect width="32" height="32" rx="8" fill="url(#bg)"/>
  <path d="M16 6l1.5 4.5L22 12l-4.5 1.5L16 18l-1.5-4.5L10 12l4.5-1.5L16 6z" fill="white"/>
  <path d="M22 18l1 3 3 1-3 1-1 3-1-3-3-1 3-1 1-3z" fill="white" opacity="0.8"/>
  <path d="M9 17l0.7 2.1 2.3 0.9-2.3 0.7L9 23l-0.7-2.3L6 20l2.3-0.9L9 17z" fill="white" opacity="0.6"/>
</svg>
